<svg id="Layer_1" data-name="Layer 1" xmlns="http://www.w3.org/2000/svg" xmlns:xlink="http://www.w3.org/1999/xlink" viewBox="0 0 566.65 388.08"><defs><style>.cls-1{fill:none;}.cls-2,.cls-4{fill:#fff;}.cls-2{fill-rule:evenodd;}.cls-3{clip-path:url(#clip-path);}.cls-5{fill:#183861;}.cls-6{clip-path:url(#clip-path-2);}</style><clipPath id="clip-path" transform="translate(0 -160.09)"><rect class="cls-1" x="20.72" y="423.14" width="534.21" height="68"/></clipPath><clipPath id="clip-path-2" transform="translate(0 -160.09)"><rect class="cls-1" x="19.59" y="476.46" width="533.1" height="54.2"/></clipPath></defs><title>universidad-tecnologica-de-pereira-seeklogo</title><rect id="Mesa-de-trabajo2" class="cls-1" width="566.65" height="388.08"/><path class="cls-2" d="M68.14,180.66l-48,48.55.91,125.88L71.51,405,68.14,180.66Z" transform="translate(0 -160.09)"/><path class="cls-2" d="M77.39,355.46l121-1.58L148.05,404l-70,1Z" transform="translate(0 -160.09)"/><path class="cls-2" d="M145.41,233.32l50.21-.46,2.84,115.31-51,.4Z" transform="translate(0 -160.09)"/><path class="cls-2" d="M145.84,228.22l49.37-50.45,100.94-1-48.63,50.31Z" transform="translate(0 -160.09)"/><path class="cls-2" d="M258,231.94l49.87-.89.2,121.17-47.84,49.89Z" transform="translate(0 -160.09)"/><path class="cls-2" d="M257.76,226.59l49-49.87,99.58-.9-49.81,49.76Z" transform="translate(0 -160.09)"/><path class="cls-2" d="M417,175.93l82.22-.85,50.33,47.64-181.24,2.83L417,175.93Z" transform="translate(0 -160.09)"/><path class="cls-2" d="M500.42,230.71l49.93-1.16.68,44.57-49.56,50.32Z" transform="translate(0 -160.09)"/><path class="cls-2" d="M431.37,274.8l62.51-.26.31,50.18L432,325.85l-.62-51.05Z" transform="translate(0 -160.09)"/><path class="cls-2" d="M374.59,325.38l49.58-50.44,1.17,75.1-49.67,51.24Z" transform="translate(0 -160.09)"/><g class="cls-3"><path class="cls-4" d="M38.74,458.72V426.54h9.9v32.65c0,5.78-1.22,9.87-3.57,12.11s-5.85,3.4-10.31,3.4-7.87-1.09-10.39-3.26-3.65-6.33-3.65-12.25V426.54h10v32.18c0,3.06.25,5.17.81,6.25a3.3,3.3,0,0,0,3.25,1.64c1.62,0,2.68-.55,3.17-1.64S38.74,461.78,38.74,458.72Z" transform="translate(0 -160.09)"/><path class="cls-4" d="M76.88,447v27.21H68V451.37c0-2.18-.24-3.61-.73-4.35a2.49,2.49,0,0,0-2.43-1.09,2.85,2.85,0,0,0-2.52,1.22,6.91,6.91,0,0,0-.81,4v23.06H52.61V439.47h8.85v3.87h.08c1.14-2.85,3.65-4.28,7.47-4.28C74.28,439.06,76.88,441.71,76.88,447Z" transform="translate(0 -160.09)"/><path class="cls-4" d="M90.27,428.85c0,3-1.71,4.49-5.2,4.49S80,431.85,80,428.85s1.71-4.42,5.11-4.42S90.27,425.93,90.27,428.85Zm-.73,10.62v34.69H80.69V439.47Z" transform="translate(0 -160.09)"/><path class="cls-4" d="M117.37,439.47l-7.14,34.69H98.79l-7.06-34.69h9l4,23.87,4.14-23.87Z" transform="translate(0 -160.09)"/><path class="cls-4" d="M141.15,466.4v6.12c-1.71,1.43-4.55,2.18-8.52,2.18-4.63,0-8.2-1.36-10.71-4.15s-3.66-7.48-3.66-14c0-11.77,4.22-17.62,12.58-17.62,4.14,0,7.06,1.16,8.93,3.4s2.76,6.13,2.76,11.5v4.83H127q.12,4.89,1.94,7.14a6.51,6.51,0,0,0,5.36,2.25A12.83,12.83,0,0,0,141.15,466.4Zm-14.2-13h7.22c0-3.2-.24-5.3-.73-6.39a2.72,2.72,0,0,0-2.6-1.64C128.49,445.38,127.19,448,127,453.41Z" transform="translate(0 -160.09)"/><path class="cls-4" d="M154.62,455.32v18.84h-8.85V439.47h8.61v4.62h.08c.89-3.33,2.92-5,6.08-5a9.72,9.72,0,0,1,2.68.41v7.34a7.25,7.25,0,0,0-3.41-.61,4.37,4.37,0,0,0-4.05,2C155,449.6,154.62,452,154.62,455.32Z" transform="translate(0 -160.09)"/><path class="cls-4" d="M165.41,473.27v-6.73a12.73,12.73,0,0,0,7.14,1.7c2.52,0,3.74-1.09,3.74-3.2a5.07,5.07,0,0,0-1.14-3.13,14.63,14.63,0,0,0-2.92-2.72c-1.14-.75-2.27-1.63-3.41-2.51a10.17,10.17,0,0,1-2.84-3.61,10.65,10.65,0,0,1-1.22-5.17,8.49,8.49,0,0,1,2.68-6.46c1.79-1.7,4.71-2.52,8.77-2.52a33.28,33.28,0,0,1,7.22.95v6.6a17.32,17.32,0,0,0-6.41-1.09c-2.36,0-3.49.82-3.49,2.38a4,4,0,0,0,1.21,2.79,15.14,15.14,0,0,0,2.84,2.52q1.71,1.23,3.41,2.65a12,12,0,0,1,2.92,3.74,12.46,12.46,0,0,1,1.14,5.31c0,6.6-3.81,9.93-11.36,9.93A24.36,24.36,0,0,1,165.41,473.27Z" transform="translate(0 -160.09)"/><path class="cls-4" d="M197.63,428.85c0,3-1.71,4.49-5.19,4.49s-5.12-1.49-5.12-4.49,1.71-4.42,5.12-4.42S197.63,425.93,197.63,428.85Zm-.73,10.62v34.69h-8.85V439.47Z" transform="translate(0 -160.09)"/><path class="cls-4" d="M217.27,442.94v-19.8h8.84v51h-8.68v-4h-.08c-1.06,2.93-3.41,4.43-7,4.43a14.15,14.15,0,0,1-3.08-.34,8.18,8.18,0,0,1-2.76-1.57,8.36,8.36,0,0,1-2.19-3.13,23.5,23.5,0,0,1-1.46-5.17,42.45,42.45,0,0,1-.57-7.68c0-4.63.4-8.3,1.3-10.89s2-4.49,3.4-5.37a9.93,9.93,0,0,1,5.36-1.36q5.35,0,6.82,3.88Zm-1.79,3.53a3.71,3.71,0,0,0-4.38-.07,6.42,6.42,0,0,0-1.22,3.13,40.27,40.27,0,0,0-.48,7.21,41,41,0,0,0,.48,7.15,7.42,7.42,0,0,0,1.3,3.26,3.09,3.09,0,0,0,2.11.75,3.13,3.13,0,0,0,3.08-2.18c.57-1.43.9-4.42.9-8.91a38.33,38.33,0,0,0-.49-7.07C216.46,448,216.05,447,215.48,446.47Z" transform="translate(0 -160.09)"/><path class="cls-4" d="M244,462.46v-3.68c-.9-.06-1.46-.13-1.79-.13a4.59,4.59,0,0,0-3.33,1c-.56.61-.81,1.84-.81,3.61a8.44,8.44,0,0,0,.65,3.81,2.22,2.22,0,0,0,2.11,1.08C242.91,468.1,244,466.2,244,462.46Zm8.84-12.11v23.81h-8.44v-4h-.08c-1,2.93-3.41,4.36-7,4.36-5.44,0-8.11-3.54-8.11-10.55,0-3.74.89-6.53,2.67-8.3s4.63-2.65,8.61-2.65c.56,0,1.7.07,3.49.2v-2.44a7,7,0,0,0-.9-4.09c-.65-.68-1.78-1-3.49-1a19,19,0,0,0-8.11,1.64v-6.67a27.43,27.43,0,0,1,10.14-1.77c4.22,0,7.14.89,8.77,2.59S252.81,446.2,252.81,450.35Z" transform="translate(0 -160.09)"/><path class="cls-4" d="M272.85,442.94v-19.8h8.85v51H273v-4h-.08c-1.06,2.93-3.41,4.43-7,4.43a14.32,14.32,0,0,1-3.09-.34,8.38,8.38,0,0,1-2.76-1.57,8.59,8.59,0,0,1-2.19-3.13,24.66,24.66,0,0,1-1.46-5.17,43.38,43.38,0,0,1-.57-7.68,35.23,35.23,0,0,1,1.3-10.89c.9-2.65,2-4.49,3.41-5.37a9.93,9.93,0,0,1,5.36-1.36q5.35,0,6.81,3.88Zm-1.78,3.53a3.06,3.06,0,0,0-2.19-.75,3,3,0,0,0-2.19.68,6.32,6.32,0,0,0-1.22,3.13,40.08,40.08,0,0,0-.49,7.21,40.8,40.8,0,0,0,.49,7.15,7.42,7.42,0,0,0,1.3,3.26,3.09,3.09,0,0,0,2.11.75,3.14,3.14,0,0,0,3.08-2.18c.57-1.43.89-4.42.89-8.91a39.42,39.42,0,0,0-.48-7.07C272,448,271.64,447,271.07,446.47Z" transform="translate(0 -160.09)"/><path class="cls-4" d="M313.59,434.57v39.59h-10V434.57h-8.84v-8h27.67v8Z" transform="translate(0 -160.09)"/><path class="cls-4" d="M341.59,466.4v6.12c-1.71,1.43-4.55,2.18-8.52,2.18-4.63,0-8.2-1.36-10.71-4.15s-3.66-7.48-3.66-14c0-11.77,4.22-17.62,12.58-17.62,4.14,0,7.06,1.16,8.93,3.4s2.76,6.13,2.76,11.5v4.83H327.39q.12,4.89,1.95,7.14a6.48,6.48,0,0,0,5.35,2.25A12.83,12.83,0,0,0,341.59,466.4Zm-14.2-13h7.22c0-3.2-.24-5.3-.73-6.39a2.72,2.72,0,0,0-2.6-1.64C328.93,445.38,327.63,448,327.39,453.41Z" transform="translate(0 -160.09)"/><path class="cls-4" d="M366.42,466.88v6.53a15.94,15.94,0,0,1-6.82,1.29c-4.87,0-8.44-1.43-10.79-4.35s-3.41-7.48-3.41-13.81,1.14-10.68,3.33-13.47,5.76-4.15,10.71-4.15a19.42,19.42,0,0,1,6.74,1.09v6.67a12.22,12.22,0,0,0-4.95-.89c-2.36,0-4.06.75-5.12,2.25s-1.54,4.15-1.54,8.09c0,4.49.57,7.55,1.63,9.18s2.84,2.45,5.27,2.45A11.37,11.37,0,0,0,366.42,466.88Z" transform="translate(0 -160.09)"/><path class="cls-4" d="M393.61,447v27.21h-8.93V451.37c0-2.18-.24-3.61-.73-4.35a2.51,2.51,0,0,0-2.44-1.09,2.85,2.85,0,0,0-2.51,1.22,6.91,6.91,0,0,0-.81,4v23.06h-8.85V439.47h8.85v3.87h.08c1.13-2.85,3.65-4.28,7.46-4.28C391,439.06,393.61,441.71,393.61,447Z" transform="translate(0 -160.09)"/><path class="cls-4" d="M409.51,468a3,3,0,0,0,2.19-.75c.57-.48,1-1.5,1.3-3.2a41,41,0,0,0,.49-7.21,33.78,33.78,0,0,0-.57-7.28c-.33-1.7-.73-2.72-1.3-3.19a2.92,2.92,0,0,0-2.11-.68,3.76,3.76,0,0,0-2.27.68,6.66,6.66,0,0,0-1.22,3.19,41.36,41.36,0,0,0-.49,7.28,34.21,34.21,0,0,0,.57,7.28,7.14,7.14,0,0,0,1.3,3.2A3.1,3.1,0,0,0,409.51,468Zm0,6.73q-6.45,0-9.74-4.08c-2.19-2.79-3.32-7.35-3.32-13.81s1.05-11.29,3.24-13.94,5.44-3.95,9.82-3.95c4.55,0,7.87,1.29,9.9,3.95s3.17,7.28,3.17,13.94-1.14,11.16-3.33,13.88S413.81,474.7,409.51,474.7Z" transform="translate(0 -160.09)"/><rect class="cls-4" x="425.66" y="263.05" width="8.85" height="51.02"/><path class="cls-4" d="M450.57,468a3,3,0,0,0,2.19-.75c.57-.48,1-1.5,1.3-3.2a40.06,40.06,0,0,0,.49-7.21,33.14,33.14,0,0,0-.57-7.28c-.32-1.7-.73-2.72-1.3-3.19a2.89,2.89,0,0,0-2.11-.68,3.76,3.76,0,0,0-2.27.68,6.66,6.66,0,0,0-1.22,3.19,41.55,41.55,0,0,0-.48,7.28,34.33,34.33,0,0,0,.56,7.28,7.26,7.26,0,0,0,1.3,3.2A3.1,3.1,0,0,0,450.57,468Zm0,6.73q-6.45,0-9.73-4.08c-2.2-2.79-3.33-7.35-3.33-13.81s1.05-11.29,3.24-13.94,5.44-3.95,9.82-3.95c4.55,0,7.87,1.29,9.9,3.95s3.17,7.28,3.17,13.94-1.14,11.16-3.33,13.88S454.87,474.7,450.57,474.7ZM462,424.37l-8.28,9.38H448l4.38-9.38Z" transform="translate(0 -160.09)"/><path class="cls-4" d="M483.28,443.21v-3.74H492v35.64c0,9.18-4.95,13.81-14.93,13.81a20.14,20.14,0,0,1-8.44-1.43v-6.94a16,16,0,0,0,6.9,1.5c2.67,0,4.54-.55,5.84-1.7,1.14-1.16,1.78-3,1.78-5.58V469.4H483c-1.21,3.19-3.57,4.76-7.14,4.76a9.26,9.26,0,0,1-3.73-.68,8.75,8.75,0,0,1-3-2.45,12.94,12.94,0,0,1-2.28-5.31,43.22,43.22,0,0,1-.73-8.64c0-6.87.82-11.63,2.52-14.21a8.41,8.41,0,0,1,7.47-3.81,8.68,8.68,0,0,1,4.7,1,5.94,5.94,0,0,1,2.36,3.13Zm-4.14,2.51a2.79,2.79,0,0,0-2,.75c-.57.48-1,1.5-1.3,3.2a32,32,0,0,0-.57,7.07,29.93,29.93,0,0,0,.57,6.74c.41,1.63.81,2.72,1.38,3.2a3.07,3.07,0,0,0,2,.74,3.1,3.1,0,0,0,3-2.17c.57-1.43.89-4.29.89-8.51,0-4.49-.32-7.41-.89-8.91A3.16,3.16,0,0,0,479.14,445.72Z" transform="translate(0 -160.09)"/><path class="cls-4" d="M505.59,428.85c0,3-1.7,4.49-5.19,4.49s-5.11-1.49-5.11-4.49,1.7-4.42,5.11-4.42S505.59,425.93,505.59,428.85Zm-.73,10.62v34.69H496V439.47Z" transform="translate(0 -160.09)"/><path class="cls-4" d="M529.05,466.88v6.53a15.94,15.94,0,0,1-6.82,1.29c-4.87,0-8.44-1.43-10.79-4.35S508,462.87,508,456.54s1.13-10.68,3.32-13.47,5.77-4.15,10.72-4.15A19.4,19.4,0,0,1,528.8,440v6.67a12.19,12.19,0,0,0-4.95-.89c-2.35,0-4.06.75-5.11,2.25s-1.54,4.15-1.54,8.09c0,4.49.57,7.55,1.62,9.18s2.84,2.45,5.28,2.45A11.4,11.4,0,0,0,529.05,466.88Z" transform="translate(0 -160.09)"/><path class="cls-4" d="M546.09,462.46v-3.68c-.9-.06-1.46-.13-1.79-.13a4.59,4.59,0,0,0-3.33,1c-.56.61-.81,1.84-.81,3.61a8.44,8.44,0,0,0,.65,3.81,2.22,2.22,0,0,0,2.11,1.08C545,468.1,546.09,466.2,546.09,462.46Zm8.84-12.11v23.81h-8.44v-4h-.08c-1,2.93-3.41,4.36-7,4.36-5.43,0-8.11-3.54-8.11-10.55,0-3.74.89-6.53,2.68-8.3s4.62-2.65,8.6-2.65c.57,0,1.7.07,3.49.2v-2.44a7,7,0,0,0-.9-4.09c-.65-.68-1.78-1-3.49-1a19,19,0,0,0-8.11,1.64v-6.67a27.43,27.43,0,0,1,10.14-1.77c4.22,0,7.14.89,8.77,2.59S554.93,446.2,554.93,450.35Z" transform="translate(0 -160.09)"/><path class="cls-5" d="M193.16,511v-19.8H202v51h-8.68v-4h-.08c-1.06,2.92-3.41,4.42-7,4.42a14.32,14.32,0,0,1-3.09-.34,8.2,8.2,0,0,1-2.76-1.57,8.51,8.51,0,0,1-2.19-3.13,24.66,24.66,0,0,1-1.46-5.17,43.38,43.38,0,0,1-.57-7.68,35.23,35.23,0,0,1,1.3-10.89c.9-2.65,2-4.49,3.41-5.37a10,10,0,0,1,5.36-1.36q5.35,0,6.81,3.88Zm-1.78,3.53a3.06,3.06,0,0,0-2.19-.74,3,3,0,0,0-2.19.68,6.23,6.23,0,0,0-1.22,3.13,39.92,39.92,0,0,0-.49,7.21,40.67,40.67,0,0,0,.49,7.14,7.42,7.42,0,0,0,1.3,3.26,3.09,3.09,0,0,0,2.11.75,3.14,3.14,0,0,0,3.08-2.18c.57-1.42.89-4.42.89-8.91a39.42,39.42,0,0,0-.48-7.07C192.35,516.06,192,515,191.38,514.49Z" transform="translate(0 -160.09)"/><path class="cls-5" d="M228,534.42v6.13c-1.71,1.43-4.55,2.17-8.52,2.17-4.63,0-8.2-1.36-10.71-4.15s-3.66-7.48-3.66-14c0-11.77,4.22-17.62,12.58-17.62,4.14,0,7.06,1.16,8.93,3.4s2.76,6.13,2.76,11.5v4.83H213.78q.12,4.91,1.94,7.14a6.51,6.51,0,0,0,5.36,2.25A12.83,12.83,0,0,0,228,534.42Zm-14.2-13H221c0-3.19-.24-5.3-.73-6.39a2.71,2.71,0,0,0-2.6-1.63C215.32,513.41,214,516.06,213.78,521.43Z" transform="translate(0 -160.09)"/><path class="cls-5" d="M253,502.25v16.33h2.11a4,4,0,0,0,3.74-2c.73-1.29,1.05-3.33,1.05-6.26s-.32-5.1-1.05-6.32a4,4,0,0,0-3.66-1.77Zm.25,24v15.92h-9.9V494.56H256c4.78,0,8.27,1.23,10.55,3.68s3.4,6.32,3.4,11.76-1.21,9.53-3.49,12.25-6.16,4-11.36,4Z" transform="translate(0 -160.09)"/><path class="cls-5" d="M294,534.42v6.13c-1.7,1.43-4.54,2.17-8.52,2.17-4.62,0-8.19-1.36-10.71-4.15s-3.65-7.48-3.65-14c0-11.77,4.22-17.62,12.58-17.62,4.14,0,7.06,1.16,8.93,3.4s2.75,6.13,2.75,11.5v4.83H279.83q.12,4.91,1.95,7.14a6.5,6.5,0,0,0,5.36,2.25A12.77,12.77,0,0,0,294,534.42Zm-14.2-13h7.23c0-3.19-.25-5.3-.73-6.39a2.71,2.71,0,0,0-2.6-1.63C281.38,513.41,280.08,516.06,279.83,521.43Z" transform="translate(0 -160.09)"/><path class="cls-5" d="M307.51,523.34v18.84h-8.85V507.49h8.6v4.62h.08c.9-3.33,2.92-5,6.09-5a10.17,10.17,0,0,1,2.68.41v7.34a7.38,7.38,0,0,0-3.41-.61,4.38,4.38,0,0,0-4.06,2C307.91,517.62,307.51,520,307.51,523.34Z" transform="translate(0 -160.09)"/><path class="cls-5" d="M339.56,534.42v6.13c-1.7,1.43-4.54,2.17-8.52,2.17-4.63,0-8.2-1.36-10.71-4.15s-3.65-7.48-3.65-14c0-11.77,4.22-17.62,12.57-17.62,4.14,0,7.06,1.16,8.93,3.4s2.76,6.13,2.76,11.5v4.83H325.36q.12,4.91,1.95,7.14a6.48,6.48,0,0,0,5.35,2.25A12.81,12.81,0,0,0,339.56,534.42Zm-14.2-13h7.22c0-3.19-.24-5.3-.73-6.39a2.71,2.71,0,0,0-2.6-1.63C326.9,513.41,325.6,516.06,325.36,521.43Z" transform="translate(0 -160.09)"/><path class="cls-5" d="M353.92,496.88c0,3-1.7,4.49-5.19,4.49s-5.11-1.5-5.11-4.49,1.7-4.42,5.11-4.42S353.92,494,353.92,496.88Zm-.73,10.61v34.69h-8.84V507.49Z" transform="translate(0 -160.09)"/><path class="cls-5" d="M366,523.34v18.84h-8.85V507.49h8.6v4.62h.08c.9-3.33,2.92-5,6.09-5a10.17,10.17,0,0,1,2.68.41v7.34a7.38,7.38,0,0,0-3.41-.61,4.38,4.38,0,0,0-4.06,2C366.42,517.62,366,520,366,523.34Z" transform="translate(0 -160.09)"/><path class="cls-5" d="M390,530.48v-3.67c-.89-.07-1.46-.14-1.78-.14a4.59,4.59,0,0,0-3.33,1c-.57.61-.81,1.84-.81,3.61a8.3,8.3,0,0,0,.65,3.81,2.2,2.2,0,0,0,2.11,1.09C388.9,536.13,390,534.22,390,530.48Zm8.85-12.11v23.81h-8.44v-3.95h-.08c-1.06,2.93-3.41,4.36-7,4.36-5.44,0-8.12-3.54-8.12-10.55,0-3.74.9-6.53,2.68-8.29s4.63-2.66,8.6-2.66c.57,0,1.71.07,3.49.21v-2.45a7,7,0,0,0-.89-4.08c-.65-.68-1.78-1-3.49-1a19,19,0,0,0-8.11,1.63v-6.67a27.64,27.64,0,0,1,10.14-1.77c4.22,0,7.14.89,8.76,2.59S398.8,514.22,398.8,518.37Z" transform="translate(0 -160.09)"/></g><g class="cls-6"><path class="cls-5" d="M37.57,446.66V414.48h9.88v32.65c0,5.79-1.21,9.87-3.56,12.11s-5.83,3.4-10.29,3.4-7.85-1.09-10.36-3.26-3.65-6.33-3.65-12.25V414.48h10v32.18c0,3.06.25,5.17.81,6.26a3.3,3.3,0,0,0,3.24,1.63c1.62,0,2.68-.55,3.16-1.63S37.57,449.72,37.57,446.66Z" transform="translate(0 -160.09)"/><path class="cls-5" d="M75.63,434.89V462.1H66.72V439.31c0-2.18-.24-3.6-.72-4.35a2.5,2.5,0,0,0-2.43-1.09,2.82,2.82,0,0,0-2.51,1.22,6.91,6.91,0,0,0-.81,4V462.1H51.42V427.41h8.83v3.87h.08C61.46,428.43,64,427,67.78,427,73,427,75.63,429.65,75.63,434.89Z" transform="translate(0 -160.09)"/><path class="cls-5" d="M89,416.8c0,3-1.7,4.48-5.18,4.48s-5.1-1.49-5.1-4.48,1.7-4.43,5.1-4.43S89,413.87,89,416.8Zm-.73,10.61V462.1H79.44V427.41Z" transform="translate(0 -160.09)"/><path class="cls-5" d="M116,427.41l-7.13,34.69H97.5l-7-34.69h9l4,23.87,4.13-23.87Z" transform="translate(0 -160.09)"/><path class="cls-5" d="M139.77,454.34v6.13c-1.7,1.42-4.54,2.17-8.51,2.17-4.61,0-8.17-1.36-10.68-4.15s-3.65-7.48-3.65-14c0-11.77,4.21-17.62,12.55-17.62,4.13,0,7.05,1.16,8.91,3.4s2.75,6.13,2.75,11.5v4.83H125.6q.12,4.89,1.94,7.14a6.47,6.47,0,0,0,5.34,2.25A12.77,12.77,0,0,0,139.77,454.34Zm-14.17-13h7.2c0-3.2-.24-5.3-.73-6.39a2.7,2.7,0,0,0-2.59-1.64C127.13,433.32,125.84,436,125.6,441.35Z" transform="translate(0 -160.09)"/><path class="cls-5" d="M153.21,443.26V462.1h-8.83V427.41H153V432h.08c.89-3.33,2.91-5,6.07-5a9.77,9.77,0,0,1,2.68.41v7.34a7.38,7.38,0,0,0-3.41-.61,4.37,4.37,0,0,0-4,2C153.62,437.54,153.21,439.92,153.21,443.26Z" transform="translate(0 -160.09)"/><path class="cls-5" d="M164,461.21v-6.73a12.67,12.67,0,0,0,7.13,1.7c2.51,0,3.72-1.09,3.72-3.2a5.05,5.05,0,0,0-1.13-3.13,14.36,14.36,0,0,0-2.92-2.72c-1.13-.75-2.26-1.63-3.4-2.51a10.26,10.26,0,0,1-2.83-3.61,10.65,10.65,0,0,1-1.22-5.17,8.46,8.46,0,0,1,2.68-6.46c1.78-1.7,4.69-2.52,8.74-2.52a33.12,33.12,0,0,1,7.21.95v6.6a17.23,17.23,0,0,0-6.4-1.09c-2.35,0-3.48.82-3.48,2.39a4,4,0,0,0,1.21,2.78,14.83,14.83,0,0,0,2.84,2.52c1.13.82,2.27,1.7,3.4,2.65a11.93,11.93,0,0,1,2.91,3.75,12.38,12.38,0,0,1,1.14,5.3c0,6.6-3.81,9.93-11.34,9.93A24.25,24.25,0,0,1,164,461.21Z" transform="translate(0 -160.09)"/><path class="cls-5" d="M196.13,416.8c0,3-1.7,4.48-5.18,4.48s-5.1-1.49-5.1-4.48,1.7-4.43,5.1-4.43S196.13,413.87,196.13,416.8Zm-.73,10.61V462.1h-8.82V427.41Z" transform="translate(0 -160.09)"/><path class="cls-5" d="M215.73,430.88v-19.8h8.83v51h-8.67v-4h-.08c-1.05,2.93-3.4,4.43-7,4.43a14.12,14.12,0,0,1-3.07-.34,7.92,7.92,0,0,1-4.94-4.7,24.07,24.07,0,0,1-1.46-5.17,43.38,43.38,0,0,1-.57-7.68,35.23,35.23,0,0,1,1.3-10.89c.89-2.65,2-4.49,3.4-5.37a9.89,9.89,0,0,1,5.34-1.36q5.35,0,6.81,3.88ZM214,434.41a3.06,3.06,0,0,0-2.19-.75,3,3,0,0,0-2.19.69,6.34,6.34,0,0,0-1.21,3.12,40.08,40.08,0,0,0-.49,7.21,40.72,40.72,0,0,0,.49,7.15,7.44,7.44,0,0,0,1.29,3.26,3.09,3.09,0,0,0,2.11.75,3.14,3.14,0,0,0,3.08-2.18c.56-1.43.89-4.42.89-8.91a38.33,38.33,0,0,0-.49-7.07C214.92,436,214.51,434.89,214,434.41Z" transform="translate(0 -160.09)"/><path class="cls-5" d="M242.37,450.4v-3.67c-.89-.07-1.46-.14-1.78-.14a4.56,4.56,0,0,0-3.32,1c-.57.61-.81,1.84-.81,3.61a8.3,8.3,0,0,0,.65,3.81,2.19,2.19,0,0,0,2.1,1.08C241.32,456,242.37,454.14,242.37,450.4Zm8.83-12.11V462.1h-8.42v-4h-.09c-1.05,2.93-3.4,4.36-7,4.36-5.43,0-8.1-3.54-8.1-10.55,0-3.74.89-6.53,2.67-8.3s4.62-2.65,8.59-2.65c.57,0,1.7.07,3.48.21v-2.45a7,7,0,0,0-.89-4.08c-.65-.69-1.78-1-3.48-1a19,19,0,0,0-8.1,1.64v-6.67A27.36,27.36,0,0,1,240,426.86c4.21,0,7.13.89,8.75,2.59S251.2,434.14,251.2,438.29Z" transform="translate(0 -160.09)"/><path class="cls-5" d="M271.2,430.88v-19.8H280v51h-8.67v-4h-.08c-1,2.93-3.4,4.43-7,4.43a14.15,14.15,0,0,1-3.08-.34,8.24,8.24,0,0,1-2.75-1.57,8.48,8.48,0,0,1-2.19-3.13,24.07,24.07,0,0,1-1.46-5.17,43.38,43.38,0,0,1-.57-7.68,35.23,35.23,0,0,1,1.3-10.89c.89-2.65,2-4.49,3.4-5.37a9.9,9.9,0,0,1,5.35-1.36q5.34,0,6.8,3.88Zm-1.78,3.53a3.06,3.06,0,0,0-2.19-.75,3,3,0,0,0-2.19.69,6.34,6.34,0,0,0-1.21,3.12,40.08,40.08,0,0,0-.49,7.21,40.72,40.72,0,0,0,.49,7.15,7.42,7.42,0,0,0,1.3,3.26,3,3,0,0,0,2.1.75,3.14,3.14,0,0,0,3.08-2.18c.57-1.43.89-4.42.89-8.91a38.33,38.33,0,0,0-.49-7.07C270.39,436,270,434.89,269.42,434.41Z" transform="translate(0 -160.09)"/><path class="cls-5" d="M311.85,422.51V462.1h-10V422.51h-8.83v-8h27.62v8Z" transform="translate(0 -160.09)"/><path class="cls-5" d="M339.79,454.34v6.13c-1.7,1.42-4.53,2.17-8.5,2.17-4.62,0-8.18-1.36-10.69-4.15S317,451,317,444.48c0-11.77,4.21-17.62,12.56-17.62,4.13,0,7,1.16,8.9,3.4s2.76,6.13,2.76,11.5v4.83H325.62q.12,4.89,1.94,7.14a6.49,6.49,0,0,0,5.35,2.25A12.76,12.76,0,0,0,339.79,454.34Zm-14.17-13h7.21c0-3.2-.25-5.3-.73-6.39a2.72,2.72,0,0,0-2.59-1.64C327.16,433.32,325.86,436,325.62,441.35Z" transform="translate(0 -160.09)"/><path class="cls-5" d="M364.57,454.82v6.53a15.84,15.84,0,0,1-6.8,1.29c-4.86,0-8.42-1.43-10.77-4.35s-3.4-7.48-3.4-13.81,1.13-10.68,3.32-13.47,5.75-4.15,10.69-4.15a19.38,19.38,0,0,1,6.72,1.09v6.67a12.18,12.18,0,0,0-4.94-.89q-3.52,0-5.1,2.25c-1.06,1.43-1.54,4.15-1.54,8.09,0,4.49.56,7.55,1.62,9.19s2.83,2.44,5.26,2.44A11.32,11.32,0,0,0,364.57,454.82Z" transform="translate(0 -160.09)"/><path class="cls-5" d="M391.7,434.89V462.1h-8.91V439.31c0-2.18-.24-3.6-.73-4.35a2.48,2.48,0,0,0-2.43-1.09,2.85,2.85,0,0,0-2.51,1.22,6.91,6.91,0,0,0-.81,4V462.1h-8.82V427.41h8.82v3.87h.08c1.14-2.85,3.65-4.28,7.45-4.28C389.11,427,391.7,429.65,391.7,434.89Z" transform="translate(0 -160.09)"/><path class="cls-5" d="M407.57,455.91a3,3,0,0,0,2.19-.75c.56-.48,1-1.5,1.29-3.2a40.06,40.06,0,0,0,.49-7.21,33.2,33.2,0,0,0-.57-7.28c-.32-1.7-.73-2.72-1.29-3.19a2.92,2.92,0,0,0-2.11-.68,3.76,3.76,0,0,0-2.27.68,6.68,6.68,0,0,0-1.21,3.19,40.48,40.48,0,0,0-.49,7.28,33.56,33.56,0,0,0,.57,7.28,7.16,7.16,0,0,0,1.29,3.2A3.1,3.1,0,0,0,407.57,455.91Zm0,6.73q-6.44,0-9.72-4.08c-2.18-2.79-3.32-7.35-3.32-13.81s1.06-11.29,3.24-13.94,5.43-3.95,9.8-3.95c4.54,0,7.86,1.3,9.88,3.95s3.16,7.28,3.16,13.94-1.14,11.16-3.32,13.88S411.86,462.64,407.57,462.64Z" transform="translate(0 -160.09)"/><rect class="cls-5" x="423.69" y="250.99" width="8.83" height="51.02"/><path class="cls-5" d="M448.55,455.91a3,3,0,0,0,2.18-.75c.57-.48,1-1.5,1.3-3.2a41.2,41.2,0,0,0,.48-7.21,34,34,0,0,0-.56-7.28c-.33-1.7-.73-2.72-1.3-3.19a2.88,2.88,0,0,0-2.1-.68,3.76,3.76,0,0,0-2.27.68,6.66,6.66,0,0,0-1.22,3.19,41.63,41.63,0,0,0-.48,7.28,33.56,33.56,0,0,0,.57,7.28,7.16,7.16,0,0,0,1.29,3.2A3.1,3.1,0,0,0,448.55,455.91Zm0,6.73c-4.3,0-7.53-1.36-9.72-4.08s-3.32-7.35-3.32-13.81,1.05-11.29,3.24-13.94,5.42-3.95,9.8-3.95,7.85,1.3,9.88,3.95,3.15,7.28,3.15,13.94-1.13,11.16-3.32,13.88S452.84,462.64,448.55,462.64ZM460,412.31l-8.26,9.38H446l4.37-9.38Z" transform="translate(0 -160.09)"/><path class="cls-4" d="M481.18,431.15v-3.74h8.67v35.64c0,9.18-4.94,13.81-14.9,13.81a20.09,20.09,0,0,1-8.43-1.43v-6.94a16,16,0,0,0,6.89,1.5c2.67,0,4.53-.55,5.83-1.7,1.13-1.16,1.78-3,1.78-5.58v-5.37h-.08c-1.22,3.19-3.56,4.76-7.13,4.76a9.25,9.25,0,0,1-3.72-.68,8.73,8.73,0,0,1-3-2.45,13.08,13.08,0,0,1-2.27-5.31,43.3,43.3,0,0,1-.72-8.64c0-6.87.81-11.63,2.51-14.21a8.38,8.38,0,0,1,7.45-3.81,8.66,8.66,0,0,1,4.69,1,5.88,5.88,0,0,1,2.35,3.13Zm-4.13,2.51a2.75,2.75,0,0,0-2,.75c-.57.48-1,1.5-1.3,3.2a32.16,32.16,0,0,0-.56,7.07,30,30,0,0,0,.56,6.74c.41,1.63.81,2.72,1.38,3.2a3,3,0,0,0,2,.74,3.1,3.1,0,0,0,3-2.17c.57-1.43.89-4.29.89-8.51,0-4.49-.32-7.41-.89-8.91A3.16,3.16,0,0,0,477.05,433.66Z" transform="translate(0 -160.09)"/><path class="cls-5" d="M503.45,416.8c0,3-1.7,4.48-5.18,4.48s-5.1-1.49-5.1-4.48,1.7-4.43,5.1-4.43S503.45,413.87,503.45,416.8Zm-.73,10.61V462.1H493.9V427.41Z" transform="translate(0 -160.09)"/><path class="cls-5" d="M526.86,454.82v6.53a15.89,15.89,0,0,1-6.81,1.29c-4.86,0-8.42-1.43-10.77-4.35s-3.4-7.48-3.4-13.81S507,433.8,509.2,431s5.75-4.15,10.69-4.15a19.3,19.3,0,0,1,6.72,1.09v6.67a12.11,12.11,0,0,0-4.94-.89q-3.52,0-5.1,2.25c-1.05,1.43-1.54,4.15-1.54,8.09,0,4.49.57,7.55,1.62,9.19s2.84,2.44,5.27,2.44A11.35,11.35,0,0,0,526.86,454.82Z" transform="translate(0 -160.09)"/><path class="cls-5" d="M543.86,450.4v-3.67c-.89-.07-1.46-.14-1.78-.14a4.56,4.56,0,0,0-3.32,1c-.57.61-.81,1.84-.81,3.61a8.3,8.3,0,0,0,.65,3.81,2.19,2.19,0,0,0,2.1,1.08C542.81,456,543.86,454.14,543.86,450.4Zm8.83-12.11V462.1h-8.42v-4h-.09c-1,2.93-3.4,4.36-7,4.36-5.43,0-8.1-3.54-8.1-10.55,0-3.74.89-6.53,2.67-8.3s4.62-2.65,8.59-2.65c.57,0,1.7.07,3.48.21v-2.45a7,7,0,0,0-.89-4.08c-.65-.69-1.78-1-3.48-1a19,19,0,0,0-8.1,1.64v-6.67a27.36,27.36,0,0,1,10.12-1.77c4.21,0,7.13.89,8.75,2.59S552.69,434.14,552.69,438.29Z" transform="translate(0 -160.09)"/><path class="cls-4" d="M191.68,498.9V479.1h8.82v51h-8.66v-4h-.08c-1.06,2.92-3.4,4.42-7,4.42a14.12,14.12,0,0,1-3.07-.34,8,8,0,0,1-2.76-1.57,8.38,8.38,0,0,1-2.18-3.13,23.5,23.5,0,0,1-1.46-5.17,42.45,42.45,0,0,1-.57-7.68,35.23,35.23,0,0,1,1.3-10.89c.89-2.65,2-4.48,3.4-5.37a10,10,0,0,1,5.34-1.36c3.57,0,5.83,1.29,6.81,3.88Zm-1.79,3.53a3.72,3.72,0,0,0-4.37-.06,6.34,6.34,0,0,0-1.21,3.13,39,39,0,0,0-.49,7.21,39.72,39.72,0,0,0,.49,7.14,7.44,7.44,0,0,0,1.29,3.26,3.09,3.09,0,0,0,2.11.75,3.14,3.14,0,0,0,3.08-2.18c.56-1.42.89-4.42.89-8.91a39.24,39.24,0,0,0-.49-7.07C190.87,504,190.46,502.91,189.89,502.43Z" transform="translate(0 -160.09)"/><path class="cls-4" d="M226.42,522.37v6.12c-1.7,1.43-4.54,2.17-8.51,2.17-4.61,0-8.18-1.36-10.69-4.15s-3.64-7.48-3.64-14c0-11.77,4.21-17.62,12.55-17.62,4.13,0,7.05,1.16,8.91,3.41s2.75,6.12,2.75,11.49v4.83H212.25c.08,3.27.72,5.65,1.94,7.14a6.47,6.47,0,0,0,5.34,2.25A12.87,12.87,0,0,0,226.42,522.37Zm-14.17-13h7.2c0-3.19-.24-5.3-.73-6.39a2.69,2.69,0,0,0-2.59-1.63C213.78,501.35,212.49,504,212.25,509.37Z" transform="translate(0 -160.09)"/><path class="cls-4" d="M251.36,490.19v16.33h2.11a4,4,0,0,0,3.72-2c.73-1.29,1.05-3.33,1.05-6.25s-.32-5.11-1.05-6.33a4,4,0,0,0-3.64-1.77Zm.24,24v15.92h-9.88V482.5h12.64c4.77,0,8.26,1.23,10.52,3.68s3.4,6.32,3.4,11.77-1.21,9.52-3.48,12.24-6.15,4-11.33,4Z" transform="translate(0 -160.09)"/><path class="cls-4" d="M292.34,522.37v6.12c-1.71,1.43-4.54,2.17-8.51,2.17-4.61,0-8.18-1.36-10.69-4.15s-3.64-7.48-3.64-14c0-11.77,4.21-17.62,12.55-17.62,4.13,0,7.05,1.16,8.91,3.41s2.75,6.12,2.75,11.49v4.83H278.16q.12,4.9,1.95,7.14a6.46,6.46,0,0,0,5.34,2.25A12.89,12.89,0,0,0,292.34,522.37Zm-14.18-13h7.21c0-3.19-.24-5.3-.73-6.39a2.69,2.69,0,0,0-2.59-1.63C279.7,501.35,278.41,504,278.16,509.37Z" transform="translate(0 -160.09)"/><path class="cls-4" d="M305.78,511.28v18.84H297V495.43h8.59v4.62h.08c.89-3.33,2.91-5,6.07-5a10,10,0,0,1,2.67.41v7.34a7.33,7.33,0,0,0-3.4-.61,4.37,4.37,0,0,0-4,2C306.18,505.56,305.78,507.94,305.78,511.28Z" transform="translate(0 -160.09)"/><path class="cls-4" d="M337.77,522.37v6.12c-1.7,1.43-4.54,2.17-8.51,2.17-4.61,0-8.18-1.36-10.69-4.15s-3.64-7.48-3.64-14c0-11.77,4.21-17.62,12.55-17.62,4.13,0,7,1.16,8.91,3.41s2.75,6.12,2.75,11.49v4.83H323.59c.09,3.27.73,5.65,2,7.14a6.46,6.46,0,0,0,5.34,2.25A12.87,12.87,0,0,0,337.77,522.37Zm-14.18-13h7.21c0-3.19-.24-5.3-.73-6.39a2.69,2.69,0,0,0-2.59-1.63C325.13,501.35,323.84,504,323.59,509.37Z" transform="translate(0 -160.09)"/><path class="cls-4" d="M352.1,484.82c0,3-1.7,4.49-5.18,4.49s-5.11-1.5-5.11-4.49,1.71-4.42,5.11-4.42S352.1,481.89,352.1,484.82Zm-.73,10.61v34.69h-8.83V495.43Z" transform="translate(0 -160.09)"/><path class="cls-4" d="M364.17,511.28v18.84h-8.83V495.43h8.58v4.62H364c.89-3.33,2.92-5,6.08-5a10,10,0,0,1,2.67.41v7.34a7.33,7.33,0,0,0-3.4-.61,4.37,4.37,0,0,0-4.05,2C364.57,505.56,364.17,507.94,364.17,511.28Z" transform="translate(0 -160.09)"/><path class="cls-4" d="M388.05,518.42v-3.67c-.89-.07-1.45-.14-1.78-.14a4.56,4.56,0,0,0-3.32.95c-.56.62-.81,1.84-.81,3.61a8.44,8.44,0,0,0,.65,3.81,2.2,2.2,0,0,0,2.11,1.09C387,524.07,388.05,522.16,388.05,518.42Zm8.83-12.11v23.81h-8.42v-4h-.08c-1.05,2.93-3.4,4.36-7,4.36-5.42,0-8.09-3.54-8.09-10.55,0-3.74.89-6.53,2.67-8.29s4.61-2.66,8.58-2.66c.57,0,1.7.07,3.48.21v-2.45a7,7,0,0,0-.89-4.08c-.64-.68-1.78-1-3.48-1a19,19,0,0,0-8.1,1.63v-6.67a27.59,27.59,0,0,1,10.13-1.77c4.21,0,7.12.89,8.74,2.59S396.88,502.16,396.88,506.31Z" transform="translate(0 -160.09)"/></g></svg>
